<?xml version="1.0" encoding="UTF-8"?>
<svg width="30px" height="25px" viewBox="0 0 30 25" version="1.1" xmlns="http://www.w3.org/2000/svg" xmlns:xlink="http://www.w3.org/1999/xlink">
    <!-- Generator: Sketch 44.1 (41455) - http://www.bohemiancoding.com/sketch -->
    <title>like (2)</title>
    <desc>Created with Sketch.</desc>
    <defs>
        <rect id="path-1" x="0" y="0" width="335" height="60" rx="5"></rect>
        <filter x="-1.9%" y="-10.8%" width="105.1%" height="128.3%" filterUnits="objectBoundingBox" id="filter-3">
            <feOffset dx="2" dy="2" in="SourceAlpha" result="shadowOffsetOuter1"></feOffset>
            <feGaussianBlur stdDeviation="2.5" in="shadowOffsetOuter1" result="shadowBlurOuter1"></feGaussianBlur>
            <feColorMatrix values="0 0 0 0 0   0 0 0 0 0   0 0 0 0 0  0 0 0 0.08 0" type="matrix" in="shadowBlurOuter1"></feColorMatrix>
        </filter>
    </defs>
    <g id="Page-1" stroke="none" stroke-width="1" fill="none" fill-rule="evenodd">
        <g id="EL-Debate-Voting-Copy" transform="translate(-310.000000, -296.000000)">
            <g id="Voting" transform="translate(20.000000, 249.000000)">
                <g id="Yes" transform="translate(0.000000, 31.000000)">
                    <mask id="mask-2" fill="white">
                        <use xlink:href="#path-1"></use>
                    </mask>
                    <g id="Rectangle-3-Copy">
                        <use fill="black" fill-opacity="1" filter="url(#filter-3)" xlink:href="#path-1"></use>
                        <use fill="#FFFFFF" fill-rule="evenodd" xlink:href="#path-1"></use>
                    </g>
                    <text id="I-think-yes" mask="url(#mask-2)" font-family="HelveticaNeue, Helvetica Neue" font-size="24" font-weight="normal" fill="#0098E3">
                        <tspan x="20" y="38">I think yes</tspan>
                    </text>
                    <circle id="Oval-3" mask="url(#mask-2)" cx="305" cy="30" r="22"></circle>
                    <g id="like-(2)" mask="url(#mask-2)" fill-rule="nonzero" fill="#0098E3">
                        <g transform="translate(290.000000, 16.000000)">
                            <circle id="Oval" cx="6.4128928" cy="20.2282361" r="1.00684081"></circle>
                            <path d="M29.1902948,14.796696 C29.1902948,14.301888 29.0370167,13.8423445 28.7759084,13.4624079 C29.3907668,13.0355683 29.7944459,12.3249256 29.7944459,11.5214664 C29.7944459,10.2192422 28.7349994,9.15973749 27.4328333,9.15973749 L21.2240204,9.15973749 L21.6172831,8.27800983 C22.1922216,6.98870425 22.4852774,5.6190935 22.4883034,4.2074098 C22.4883034,4.2074098 22.4918531,2.48451442 22.4918531,2.47485452 C22.4918531,1.13649295 21.4030195,0.0476011897 20.0645998,0.0476011897 C19.0697465,0.0476011897 18.1860403,0.643547136 17.8132613,1.56595112 C17.7968512,1.60662744 17.2319798,3.27074874 17.2319798,3.27074874 C16.7226238,4.75051726 15.8188995,6.06333247 14.6186862,7.06749644 L11.7386396,9.47682659 L10.0736454,9.47682659 L10.0736454,8.71677874 C10.0736454,7.91832407 9.4240463,7.26866675 8.62553343,7.26866675 L1.44811199,7.26866675 C0.649599121,7.26866675 0,7.91826587 0,8.71677874 L0,22.8287275 C0,23.6271822 0.649599121,24.2768395 1.44811199,24.2768395 L8.62541704,24.2768395 C9.42387172,24.2768395 10.073529,23.6272404 10.073529,22.8287275 L10.073529,21.6951442 L10.9825488,21.6951442 L11.8850511,22.1314108 C14.0200052,23.1633907 16.4018104,23.708884 18.7730829,23.708884 L22.0737424,23.708884 L23.0805832,23.708884 L25.620322,23.708884 C26.9225462,23.708884 27.982051,22.6494375 27.982051,21.3472714 C27.982051,20.8524635 27.8287728,20.39292 27.5676646,20.0129833 C28.182523,19.5861438 28.586202,18.8755011 28.586202,18.0720419 C28.586202,17.5772339 28.4329238,17.1176904 28.1718156,16.7377538 C28.786674,16.3109143 29.1902948,15.6002134 29.1902948,14.796696 Z M8.62541704,22.8287275 L1.44811199,22.8287275 L1.44811199,8.71672055 L8.62541704,8.71672055 L8.62634812,22.8286693 C8.62634812,22.8286693 8.62605716,22.8287275 8.62541704,22.8287275 Z M27.4328333,12.4351416 L26.4024829,12.4351416 C26.0025863,12.4351416 25.678456,12.759272 25.678456,13.1591685 C25.678456,13.559065 26.0025863,13.8831954 26.4024829,13.8831954 L26.8286823,13.8831954 C27.3324518,13.8831954 27.7422992,14.2929846 27.7422992,14.7968124 C27.7422992,15.3006401 27.33251,15.7104293 26.8286823,15.7104293 L25.7984482,15.7104293 C25.3985517,15.7104293 25.0744213,16.0345597 25.0744213,16.4344562 C25.0744213,16.8343528 25.3985517,17.1584831 25.7984482,17.1584831 L26.2246476,17.1584831 C26.728359,17.1584831 27.1382646,17.5682723 27.1382646,18.0721001 C27.1382646,18.5758115 26.7284754,18.9856589 26.2246476,18.9856589 L25.1944136,18.9856589 C24.794517,18.9856589 24.4703867,19.3097892 24.4703867,19.7096858 C24.4703867,20.1095823 24.794517,20.4337127 25.1944136,20.4337127 L25.620613,20.4337127 C26.1243825,20.4337127 26.5342299,20.8436183 26.5342299,21.3473296 C26.5341135,21.8509246 26.1242661,22.2607138 25.6204966,22.2607138 L23.0807578,22.2607138 L22.073917,22.2607138 L18.7732575,22.2607138 C16.6189254,22.2607138 14.4550498,21.7651494 12.5154468,20.8276154 L11.4636234,20.3191905 C11.3653951,20.2717057 11.2576232,20.246974 11.1485129,20.246974 L10.0736454,20.246974 L10.0736454,10.9248222 L12.0015518,10.9248222 C12.1714147,10.9248222 12.3358658,10.865117 12.4660998,10.7561231 L15.5477822,8.17809388 C16.9502134,7.00493987 18.006052,5.47093625 18.6011832,3.74198888 C18.6011832,3.74198888 19.1772857,2.06471615 19.1806608,2.05331049 C19.3430169,1.71276995 19.6834411,1.49571318 20.064658,1.49571318 C20.6045649,1.49571318 21.0437993,1.93494763 21.0437993,2.47485452 C21.0437993,2.48445623 21.0402496,4.20438381 21.0402496,4.20438381 C21.0376891,5.41268589 20.7868809,6.58479245 20.2947498,7.68829044 L19.4513707,9.57965214 C19.3774667,9.74544161 19.3714147,9.92403336 19.4205289,10.0850511 C19.4246605,10.0993082 19.5810229,10.6079659 20.1156925,10.6079659 L27.4329497,10.6079659 C27.9366611,10.6079659 28.3465085,11.0177551 28.3465085,11.5215828 C28.3463339,12.0252942 27.9365447,12.4351416 27.4328333,12.4351416 Z" id="Shape"></path>
                        </g>
                    </g>
                </g>
            </g>
        </g>
    </g>
</svg>